<?xml version="1.0" encoding="UTF-8" standalone="no"?>
<!-- Created with Inkscape (http://www.inkscape.org/) -->
<svg
   xmlns:dc="http://purl.org/dc/elements/1.1/"
   xmlns:cc="http://creativecommons.org/ns#"
   xmlns:rdf="http://www.w3.org/1999/02/22-rdf-syntax-ns#"
   xmlns:svg="http://www.w3.org/2000/svg"
   xmlns="http://www.w3.org/2000/svg"
   xmlns:sodipodi="http://sodipodi.sourceforge.net/DTD/sodipodi-0.dtd"
   xmlns:inkscape="http://www.inkscape.org/namespaces/inkscape"
   width="48px"
   height="48px"
   id="svg1377"
   sodipodi:version="0.32"
   inkscape:version="0.46"
   sodipodi:docbase="/home/jimmac/src/cvs/tango-icon-theme/scalable/status"
   sodipodi:docname="Dialog-warning.svg"
   inkscape:output_extension="org.inkscape.output.svg.inkscape">
  <defs
     id="defs1379">
    <inkscape:perspective
       sodipodi:type="inkscape:persp3d"
       inkscape:vp_x="0 : 24 : 1"
       inkscape:vp_y="0 : 1000 : 0"
       inkscape:vp_z="48 : 24 : 1"
       inkscape:persp3d-origin="24 : 16 : 1"
       id="perspective30" />
  </defs>
  <sodipodi:namedview
     id="base"
     pagecolor="#ffffff"
     bordercolor="#666666"
     borderopacity="1.0"
     inkscape:pageopacity="0.0"
     inkscape:pageshadow="2"
     inkscape:zoom="2.8284271"
     inkscape:cx="36.326421"
     inkscape:cy="32.566774"
     inkscape:current-layer="g7435"
     showgrid="true"
     inkscape:grid-bbox="true"
     inkscape:document-units="px"
     inkscape:window-width="934"
     inkscape:window-height="720"
     inkscape:window-x="55"
     inkscape:window-y="25" />
  <metadata
     id="metadata1382">
    <rdf:RDF>
      <cc:Work
         rdf:about="">
        <dc:format>image/svg+xml</dc:format>
        <dc:type
           rdf:resource="http://purl.org/dc/dcmitype/StillImage" />
        <dc:title>Dialog Warning</dc:title>
        <dc:date>2005-10-14</dc:date>
        <dc:creator>
          <cc:Agent>
            <dc:title>Andreas Nilsson</dc:title>
          </cc:Agent>
        </dc:creator>
        <dc:contributor>
          <cc:Agent>
            <dc:title>Jakub Steiner</dc:title>
          </cc:Agent>
        </dc:contributor>
        <dc:subject>
          <rdf:Bag>
            <rdf:li>dialog</rdf:li>
            <rdf:li>warning</rdf:li>
          </rdf:Bag>
        </dc:subject>
        <cc:license
           rdf:resource="http://creativecommons.org/licenses/by-sa/2.0/" />
      </cc:Work>
      <cc:License
         rdf:about="http://creativecommons.org/licenses/by-sa/2.0/">
        <cc:permits
           rdf:resource="http://web.resource.org/cc/Reproduction" />
        <cc:permits
           rdf:resource="http://web.resource.org/cc/Distribution" />
        <cc:requires
           rdf:resource="http://web.resource.org/cc/Notice" />
        <cc:requires
           rdf:resource="http://web.resource.org/cc/Attribution" />
        <cc:permits
           rdf:resource="http://web.resource.org/cc/DerivativeWorks" />
        <cc:requires
           rdf:resource="http://web.resource.org/cc/ShareAlike" />
      </cc:License>
    </rdf:RDF>
  </metadata>
  <g
     id="layer1"
     inkscape:label="Layer 1"
     inkscape:groupmode="layer">
    <g
       transform="matrix(1.566667,0.000000,0.000000,1.566667,-8.925566,-23.94764)"
       id="g7435">
      <g
         style="fill-rule:nonzero;stroke:#000000;stroke-miterlimit:4.0000000"
         id="Layer_x0020_2"
         transform="matrix(0.625000,0.000000,0.000000,0.625000,6.011173,14.00913)">
        <path
           id="path6480"
           d="M 48.000000,48.000000 L 0.0000000,48.000000 L 0.0000000,0.0000000 L 48.000000,0.0000000 L 48.000000,48.000000 z "
           style="fill:none;stroke:none" />
      </g>
      <path
         style="fill:#cc0000;fill-rule:nonzero;stroke:#9f0000;stroke-width:0.63829780;stroke-miterlimit:4.0000000;stroke-dasharray:none;stroke-opacity:1"
         d="M 33.282781,38.644744 L 22.407791,18.394765 C 22.095292,17.832266 21.532792,17.519767 20.907793,17.519767 C 20.282793,17.519767 19.720294,17.894765 19.407795,18.457265 L 8.7828048,38.707245 C 8.5328048,39.207244 8.5328048,39.894744 8.8453048,40.394743 C 9.1578038,40.894743 9.6578038,41.144742 10.282804,41.144742 L 31.782782,41.144742 C 32.407781,41.144742 32.970280,40.832243 33.220281,40.332243 C 33.532780,39.832243 33.532780,39.207244 33.282781,38.644744 z "
         id="path6485" />
      <g
         style="fill-rule:nonzero;stroke:#000000;stroke-miterlimit:4.0000000"
         transform="matrix(0.625000,0.000000,0.000000,0.634254,5.907817,14.48395)"
         id="g6487">
        <path
           style="fill:#00ffff;stroke:none"
           d="M 9.5,37.6 C 9.2,38.1 9.5,38.5 10,38.5 L 38.2,38.5 C 38.7,38.5 39,38.1 38.7,37.6 L 24.4,11 C 24.1,10.5 23.7,10.5 23.5,11 L 9.5,37.6 z"
           id="path6496" />
      </g>
      <g
         style="fill-rule:nonzero;stroke:#000000;stroke-miterlimit:4.0000000"
         transform="matrix(0.554873,0.000000,0.000000,0.554873,7.583837,16.53180)"
         id="g6498">
        <path
           style="stroke:none"
           d="M 23.900000,36.500000 C 22.600000,36.500000 21.600000,35.500000 21.600000,34.200000 C 21.600000,32.800000 22.500000,31.900000 23.900000,31.900000 C 25.300000,31.900000 26.100000,32.800000 26.200000,34.200000 C 26.200000,35.500000 25.300000,36.500000 23.900000,36.500000 L 23.900000,36.500000 z M 22.500000,30.600000 L 21.900000,19.100000 L 25.900000,19.100000 L 25.300000,30.600000 L 22.400000,30.600000 L 22.500000,30.600000 z "
           id="path6500" />
      </g>
      <path
         style="opacity:0.5;fill:none;fill-opacity:1;fill-rule:nonzero;stroke:#00ffff;stroke-width:0.63829792;stroke-miterlimit:4;stroke-dasharray:none;stroke-opacity:1"
         d="M 32.323106,38.183905 L 22.150271,19.265666 C 21.71698,18.45069 21.561698,18.189213 20.908406,18.189213 C 20.346525,18.189213 20.054127,18.57002 19.651305,19.339291 L 9.7489285,38.242296 C 9.1737649,39.303588 9.1128238,39.580228 9.3937644,40.047345 C 9.6747034,40.514462 10.032797,40.48902 11.356441,40.519491 L 30.974593,40.519491 C 32.206825,40.534726 32.483988,40.440837 32.70874,39.97372 C 32.989681,39.506602 32.867799,39.136 32.323106,38.183905 z"
         id="path1325"
         sodipodi:nodetypes="ccsccscccc" />
    </g>
  </g>
</svg>
