<?xml version="1.0" encoding="UTF-8" standalone="no"?>
<!-- Created with Inkscape (http://www.inkscape.org/) -->
<svg
   xmlns:dc="http://purl.org/dc/elements/1.1/"
   xmlns:cc="http://creativecommons.org/ns#"
   xmlns:rdf="http://www.w3.org/1999/02/22-rdf-syntax-ns#"
   xmlns:svg="http://www.w3.org/2000/svg"
   xmlns="http://www.w3.org/2000/svg"
   xmlns:sodipodi="http://sodipodi.sourceforge.net/DTD/sodipodi-0.dtd"
   xmlns:inkscape="http://www.inkscape.org/namespaces/inkscape"
   width="300"
   height="300"
   id="svg2"
   sodipodi:version="0.32"
   inkscape:version="0.46"
   sodipodi:docname="range_selection.svg"
   inkscape:output_extension="org.inkscape.output.svg.inkscape">
  <defs
     id="defs7">
    <inkscape:perspective
       sodipodi:type="inkscape:persp3d"
       inkscape:vp_x="0 : 150 : 1"
       inkscape:vp_y="0 : 1000 : 0"
       inkscape:vp_z="300 : 150 : 1"
       inkscape:persp3d-origin="150 : 100 : 1"
       id="perspective9" />
  </defs>
  <sodipodi:namedview
     inkscape:window-height="673"
     inkscape:window-width="640"
     inkscape:pageshadow="2"
     inkscape:pageopacity="0.0"
     guidetolerance="10.0"
     gridtolerance="10.0"
     objecttolerance="10.0"
     borderopacity="1.0"
     bordercolor="#666666"
     pagecolor="#ffffff"
     id="base"
     showgrid="false"
     inkscape:zoom="1.5533333"
     inkscape:cx="150"
     inkscape:cy="150"
     inkscape:window-x="697"
     inkscape:window-y="0"
     inkscape:current-layer="layer1" />
  <metadata
     id="metadata7">
    <rdf:RDF>
      <cc:Work
         rdf:about="">
        <dc:format>image/svg+xml</dc:format>
        <dc:type
           rdf:resource="http://purl.org/dc/dcmitype/StillImage" />
      </cc:Work>
    </rdf:RDF>
  </metadata>
  <g
     inkscape:label="Layer 1"
     inkscape:groupmode="layer"
     id="layer1">
    <rect
       style="opacity:1;fill:#ffff00;fill-opacity:1;stroke:none;stroke-width:0;stroke-miterlimit:4;stroke-dasharray:none;stroke-opacity:0.78431373000000004"
       id="rect2403"
       width="300"
       height="300"
       x="0"
       y="0" />
    <path
       style="opacity:1;fill:#000000;fill-opacity:1;stroke:none;stroke-width:0;stroke-miterlimit:4;stroke-dasharray:none;stroke-opacity:0.78431373"
       id="path2388"
       d="M 6.7858542,-2.2277017 C 5.6690876,-1.5283604 4.8196637,-0.51996827 3.7490561,0.2453671 C 2.6635814,0.90549949 2.082526,1.8241018 1.7808799,3.0287939 C 1.6124927,4.4508405 1.3952597,5.8666822 1.2064103,7.2864853 C 1.0358934,8.6104363 0.99366995,9.9452852 0.96907066,11.278409 C 0.952971,12.564868 0.95704901,13.851471 0.95855154,15.137999 C 0.97197218,16.489512 0.95114856,17.840706 0.94167201,19.192064 C 0.94044192,20.61679 0.9508719,22.041494 0.95623892,23.466204 C 0.96907173,24.952073 0.66615303,26.418614 0.50258022,27.891988 C 0.36475469,29.216585 0.33713918,30.548692 0.32047899,31.879227 C 0.31023898,33.165722 0.31392642,34.452277 0.31542437,35.738798 C 0.31706824,37.025664 0.31766118,38.312531 0.31801122,39.599398 C 0.31827619,40.886924 0.31825564,42.174451 0.31825438,43.461978 C 0.32908442,44.894049 -0.024184503,46.271817 0.0088682565,47.706254 C 0.31129019,49.008888 0.59417007,50.310326 0.76880982,51.638181 C 0.95923264,53.164053 0.96510367,54.695928 0.77343186,56.21965 C 0.55374683,57.735018 0.42928849,59.260353 0.36138733,60.789277 C 0.31408313,62.097262 0.31461009,63.406315 0.31376454,64.714962 C 0.31447157,66.000195 0.31631299,67.285426 0.31725079,68.570658 C 0.29422261,70.043747 0.30934273,71.517282 0.28891569,72.9904 C 0.28291407,74.483207 0.23874575,75.971787 0.45760215,77.451302 C 0.70388436,78.766955 0.8366542,80.096852 0.90985047,81.432035 C 0.9328192,82.901859 0.946734,84.371792 0.95521466,85.841764 C 0.96171335,87.166923 0.96206199,88.4921 0.96238252,89.817271 C 0.96246484,91.104354 0.96224001,92.391438 0.96213131,93.678522 C 0.92777105,95.142814 0.94348228,96.607721 0.95060074,98.072245 C 0.95749621,99.397726 0.9599062,100.72322 0.96127785,102.04872 C 0.9611458,103.46838 0.93969893,104.88755 0.94401534,106.3073 C 0.95102974,107.67404 0.95664839,109.04079 0.95962407,110.40755 C 0.92665986,112.00851 0.92109688,113.60953 0.93261103,115.21076 C 0.94599105,116.61505 0.95447668,118.01938 0.95892862,119.42373 C 0.96221369,120.71436 0.96218026,122.00499 0.96226583,123.29562 C 0.95823384,124.60971 0.9737915,125.9239 0.94756987,127.23778 C 0.75427246,129.03403 0.53439047,130.82509 0.41525342,132.62876 C 0.29202592,133.87482 -0.024233805,135.08706 -0.18049054,136.3293 C -0.32087634,137.52703 -0.24881181,138.73485 -0.45193533,139.92464 C -0.60295032,141.26058 -1.3577343,142.34717 -1.9883863,143.49095 C -2.5264953,144.88358 -3.6428694,145.71652 -4.7507933,146.6291 C -5.815481,147.59301 -6.9574061,148.44889 -8.1399149,149.25878 C -8.4551706,149.54806 -8.715728,149.48875 -8.4367331,149.77544 C -7.8744547,150.35325 -8.3942019,149.90574 -7.7761347,150.40099 C -6.7912189,150.85179 -5.8199933,151.30328 -4.9225483,151.92102 C -3.8756606,152.62959 -2.6642226,152.85185 -1.4325935,152.97625 C -0.13591921,152.90154 0.99399081,152.23413 2.2848305,152.15038 C 3.4720607,152.41999 4.3361017,153.23982 4.9013885,154.2836 C 5.400582,155.46744 5.4375044,156.761 5.475051,158.02599 C 5.5075108,159.38621 5.4720496,160.74629 5.4569258,162.10634 C 5.5175029,163.56918 5.4275767,165.00814 5.2031863,166.45234 C 4.9079879,168.05434 4.8579833,169.68437 4.8249864,171.30854 C 4.8066053,172.68545 4.8144571,174.06252 4.8183342,175.4395 C 4.7275326,177.01072 4.9864128,178.56234 5.138896,180.12059 C 5.3766794,181.99911 5.1086896,183.88757 4.8689402,185.75154 C 4.5965073,187.43697 4.3753592,189.12823 4.2572344,190.83152 C 4.1799339,192.14138 4.1774558,193.45398 4.1747961,194.76563 C 4.1562632,196.20645 4.1564448,197.64721 4.1644719,199.08818 C 4.1654428,200.73367 4.1764689,202.37058 3.9900149,204.00721 C 3.7448587,205.59634 3.6342067,207.20053 3.5717722,208.80579 C 3.4921673,210.44089 3.4906743,212.07809 3.5026215,213.71465 C 3.5311518,215.21827 3.5084614,216.72177 3.5127666,218.22545 C 3.4875149,219.8005 3.5102397,221.37581 3.5221576,222.95088 C 3.5150758,224.44057 3.5133636,225.93022 3.52172,227.42002 C 3.5310913,228.89472 3.5114124,230.36907 3.5177976,231.84384 C 3.6339758,233.3397 3.3483414,234.80146 3.1353938,236.2725 C 2.9467116,237.84295 2.911756,239.4257 2.8916436,241.00555 C 2.880624,242.46052 2.8643348,243.91503 2.8712446,245.37009 C 2.8807154,246.73515 2.8872293,248.10023 2.8907023,249.46532 C 2.9049977,250.82042 2.8833442,252.1752 2.8735011,253.53014 C 2.8209176,255.28927 2.8412967,257.04887 2.8613628,258.80829 C 2.8792423,260.20449 2.8870701,261.60077 2.8911663,262.99706 C 2.8868169,264.26829 2.8466222,265.53149 3.0398406,266.79053 C 3.2653793,268.09276 3.6862654,269.34475 3.9238146,270.64619 C 4.0338405,271.94987 4.3183185,273.2245 4.5358939,274.51201 C 4.7425733,275.80887 4.7875257,277.12259 4.8159257,278.43308 C 4.7974351,279.56348 5.1200201,280.65918 5.2789911,281.77241 C 5.4329962,283.01465 5.4510534,284.26787 5.4665799,285.51784 C 5.4764743,286.80608 5.4727221,288.09437 5.4712067,289.38263 C 5.4695619,290.67087 5.4689844,291.95911 5.4686422,293.24735 C 5.3972417,294.42091 5.4705544,295.50075 6.1204898,296.5035 C 6.7787006,297.20734 7.6146663,296.87342 8.4569197,296.78041 C 9.1831119,296.71657 8.8140753,296.74556 9.5640806,296.6941 L 1.9934886,302.28905 C 1.2345631,302.36056 1.6099484,302.32497 0.86732999,302.3958 C -0.31733027,302.4729 -1.2849896,302.25399 -2.0327896,301.24016 C -2.7172865,300.07832 -3.0105123,298.86035 -2.8931721,297.50764 C -2.8928738,296.2191 -2.8923815,294.93056 -2.8907809,293.64202 C -2.8892464,292.35775 -2.8856282,291.07345 -2.8931623,289.78918 C -2.905308,288.57891 -2.9169805,287.36575 -3.0511044,286.16149 C -3.2039306,285.0077 -3.5491345,283.87668 -3.5381772,282.70853 C -3.5559758,281.43835 -3.5802737,280.16466 -3.753506,278.90416 C -3.9515364,277.61478 -4.2904749,276.35173 -4.3615954,275.04532 C -4.5678292,273.73318 -4.9867329,272.48363 -5.2483368,271.18637 C -5.4797927,269.87941 -5.5158724,268.58299 -5.4662737,267.25539 C -5.4621588,265.84897 -5.4542628,264.44256 -5.436455,263.03624 C -5.416651,261.28094 -5.3954751,259.52544 -5.4485448,257.77044 C -5.458433,256.4216 -5.4800638,255.07293 -5.466514,253.72393 C -5.4640499,252.35349 -5.4594121,250.98306 -5.4532716,249.61263 C -5.4491175,248.15396 -5.4746059,246.69552 -5.4496742,245.23705 C -5.4131194,243.62245 -5.3445778,242.0085 -5.1985165,240.39962 C -5.0757405,238.95478 -4.727007,237.54102 -4.8053496,236.08469 C -4.7989948,234.61125 -4.8185959,233.13822 -4.8092428,231.66485 C -4.800914,230.17521 -4.8024996,228.68574 -4.8096876,227.19621 C -4.7979865,225.61847 -4.7754169,224.04046 -4.8021992,222.46277 C -4.799711,220.95654 -4.8259377,219.45053 -4.799294,217.94432 C -4.7862432,216.30107 -4.7948742,214.65798 -4.7759879,213.01482 C -4.7013727,211.37977 -4.564458,209.74932 -4.3566247,208.12544 C -4.1244207,206.53239 -4.1097101,204.94418 -4.167717,203.33473 C -4.1627284,201.89798 -4.1679872,200.46148 -4.188034,199.02494 C -4.1862693,197.68829 -4.1859174,196.35051 -4.1031318,195.01585 C -3.9728022,193.27077 -3.7186422,191.54216 -3.3979281,189.82192 C -3.1354297,188.04704 -2.986562,186.20676 -3.0769626,184.41727 C -3.2585685,182.84634 -3.5951686,181.28582 -3.5391218,179.6985 C -3.5369584,178.3058 -3.5335332,176.91292 -3.4951042,175.52064 C -3.4430293,173.86935 -3.3800585,172.21525 -3.2104501,170.57146 C -2.975857,169.16399 -2.7565058,167.77872 -2.8655104,166.34283 C -2.870282,164.99809 -2.879428,163.65347 -2.8787066,162.30865 C -2.9009358,161.19234 -2.8946487,160.04149 -3.2840346,158.97985 C -3.6831546,158.24322 -4.3651325,157.66665 -5.2537652,157.78943 C -6.5250962,158.08376 -7.7664451,158.59675 -9.1001596,158.39047 C -10.428847,158.16624 -11.695617,157.77272 -12.821775,157.00579 C -13.796309,156.44591 -14.85491,156.03933 -15.785251,155.40735 C -16.608274,154.69461 -17.646808,153.86618 -16.877714,152.71951 C -15.732551,151.83917 -14.44019,151.17753 -13.418648,150.13352 C -12.393861,149.24887 -11.117689,148.59639 -10.524608,147.3443 C -9.9982329,146.23216 -9.1362736,145.27353 -8.936896,144.03317 C -8.6524338,142.86665 -8.6474374,141.70788 -8.6044,140.5079 C -8.4893367,139.24664 -8.2537004,138.0122 -7.9072308,136.79294 C -7.7650733,135.01992 -7.5507795,133.25448 -7.3853381,131.48361 C -7.4120022,130.17473 -7.39568,128.86552 -7.4000341,127.55642 C -7.3999484,126.26466 -7.3999791,124.97289 -7.3966969,123.68113 C -7.392231,122.26784 -7.3837161,120.85458 -7.3703793,119.44134 C -7.3590144,117.84929 -7.3639952,116.25744 -7.3973923,114.66567 C -7.3944116,113.2936 -7.388787,111.92155 -7.3817832,110.5495 C -7.3774978,109.13562 -7.3988552,107.72232 -7.3990477,106.30852 C -7.3976772,104.9794 -7.3952625,103.65029 -7.3883998,102.32119 C -7.3813563,100.86056 -7.3654589,99.399536 -7.3999233,97.939146 C -7.3998969,96.651592 -7.399956,95.364038 -7.3982725,94.076484 C -7.3960535,92.748035 -7.3919946,91.419591 -7.3838613,90.091163 C -7.3766823,88.638195 -7.3585823,87.183843 -7.4309041,85.73212 C -7.4839114,84.42358 -7.5818328,83.116796 -7.8162812,81.826374 C -8.0575174,80.29467 -8.0445768,78.770476 -8.0142217,77.221108 C -8.0349343,75.758185 -8.0196187,74.294844 -8.0445237,72.831965 C -8.0454644,71.546243 -8.0473145,70.260522 -8.0480035,68.9748 C -8.0471087,67.650082 -8.0477041,66.32492 -7.9979359,65.000925 C -7.925725,63.442016 -7.7903297,61.887864 -7.5687233,60.342485 C -7.3943661,58.88774 -7.3341791,57.450865 -7.5209072,55.988849 C -7.6716379,54.626825 -7.9830166,53.309556 -8.3006291,51.979177 C -8.3734388,50.534774 -8.1538886,49.1525 -8.0435159,47.72251 C -8.0435108,46.435065 -8.0434854,45.14762 -8.0437102,43.860176 C -8.0440147,42.573609 -8.0445172,41.287043 -8.0461398,40.000478 C -8.0477009,38.709966 -8.0513651,37.419431 -8.0434982,36.128933 C -8.0296064,34.766676 -8.0067814,33.402757 -7.8733951,32.045892 C -7.7191511,30.603505 -7.4189568,29.171113 -7.39394,27.720835 C -7.3885817,26.291388 -7.3781619,24.861946 -7.38002,23.432484 C -7.3903075,22.088229 -7.4125217,20.744138 -7.4029665,19.399707 C -7.4046496,18.107645 -7.4088352,16.815536 -7.3966394,15.523511 C -7.3765008,14.15425 -7.3421643,12.782951 -7.1774994,11.42195 C -6.9937997,9.9917711 -6.7027418,8.5781931 -6.674342,7.1337291 C -6.475508,5.7821906 -6.1020431,4.5311837 -4.9604021,3.6693221 C -3.8953382,2.9604483 -2.9344455,2.2226937 -2.0976804,1.2481752 L 6.7858542,-2.2277017 z" />
    <path
       style="opacity:1;fill:#000000;fill-opacity:1;stroke:none;stroke-width:0;stroke-miterlimit:4;stroke-dasharray:none;stroke-opacity:0.78431373"
       id="path2392"
       d="M 294.11653,-2.1177405 C 294.45049,-2.0984778 294.7839,-2.0570878 295.1184,-2.0599525 C 297.34042,-2.078982 295.31381,-2.2220705 297.61832,-2.1502428 C 298.66809,-2.1175234 299.71627,-1.9538209 300.75591,-1.8166571 C 302.36757,-1.5064284 303.73193,-0.61699361 305.12636,0.18679508 C 306.13765,0.89896722 307.18823,1.56611 307.9285,2.5724769 C 308.75073,3.6684278 309.01427,4.9499352 309.17537,6.2775792 C 309.38185,7.7449352 309.29817,9.1930519 309.07757,10.649263 C 308.80758,11.901908 309.0733,13.167147 309.12246,14.426341 C 309.07637,15.612037 308.58868,16.712091 308.33403,17.861147 C 308.09872,19.08468 308.06975,20.333501 308.04589,21.575289 C 307.95874,22.855757 308.07998,24.106294 308.29294,25.365781 C 308.52664,26.660391 308.61012,27.97318 308.65892,29.285573 C 308.60261,30.796841 308.84434,32.286077 309.01885,33.782133 C 309.19828,35.270395 309.2724,36.767553 309.31209,38.265097 C 309.2405,39.569048 309.49212,40.840577 309.68923,42.120955 C 309.90233,43.545898 309.9125,44.990566 309.94507,46.428179 C 310.00386,47.721688 309.47765,48.900997 309.12229,50.114122 C 308.8,51.307507 308.74099,52.545112 308.69992,53.77378 C 308.67138,55.056493 308.67868,56.339662 308.68129,57.622593 C 308.68447,58.910868 308.68592,60.199146 308.68674,61.487424 C 308.68739,62.775095 308.68737,64.062766 308.68738,65.350437 C 308.65575,66.635157 308.96202,67.894521 309.12673,69.16283 C 309.34217,70.464582 309.42527,71.763856 309.41202,73.082321 C 309.36468,74.385791 309.40251,75.692919 309.29017,76.992756 C 309.06529,78.265981 308.87451,79.540834 308.77348,80.830094 C 308.69108,82.10651 308.68783,83.386184 308.68335,84.664708 C 308.60927,85.945846 308.72736,87.19728 308.93949,88.457577 C 309.17187,89.751791 309.25458,91.064022 309.30297,92.375821 C 309.33887,93.667526 309.33577,94.959892 309.33541,96.251972 C 309.33404,97.539512 309.33258,98.827051 309.33181,100.11459 C 309.31232,101.56006 309.30969,103.00547 309.31625,104.45112 C 309.24599,105.69069 309.35392,106.88857 309.5967,108.09995 C 309.84214,109.28846 309.90781,110.50115 309.95053,111.71064 C 310.07101,112.8491 309.68751,113.93594 309.70016,115.06693 C 309.79171,116.30018 309.88057,117.5328 309.92849,118.76866 C 310.00485,120.15306 309.98676,121.52275 309.80098,122.8963 C 309.57245,124.29955 309.44617,125.71438 309.37727,127.13345 C 309.34013,128.44211 309.29206,129.75324 309.36553,131.06104 C 309.61325,132.46073 309.65648,133.89809 309.93973,135.28964 C 310.26905,136.4315 310.44445,137.60028 310.54184,138.7819 C 310.70753,139.75266 311.04829,140.84279 311.74384,141.56848 C 312.36274,142.33058 313.29286,142.7396 314.20882,143.03565 C 315.40533,143.38151 316.66114,143.26345 317.86962,143.50887 C 319.22504,143.78879 320.55361,144.30137 321.75763,144.98393 C 322.79105,145.60237 322.82887,146.51249 322.60979,147.57165 C 321.71321,151.31413 318.10782,151.18612 313.82024,153.57006 C 313.44313,153.77974 312.9567,153.51981 312.52603,153.54617 C 312.30442,153.55974 312.08772,153.61737 311.86857,153.65296 C 310.41958,153.60313 308.9741,153.49455 307.52475,153.44521 C 306.07574,153.36034 304.67155,153.35617 303.25024,153.64476 C 303.04285,153.68271 302.82951,153.69639 302.62806,153.75859 C 302.27967,153.86617 301.95169,154.03308 301.62529,154.19558 C 301.46148,154.27712 300.99417,154.56622 301.15311,154.47556 C 308.60637,150.22412 311.1825,148.64376 308.14496,150.49868 C 307.24323,151.06326 306.37649,151.7047 305.62726,152.4622 C 304.86744,153.4871 304.8262,154.82404 304.85623,156.05186 C 305.02117,157.5514 305.24188,159.04235 305.36245,160.54674 C 305.45496,161.86169 305.46442,163.18038 305.47131,164.49796 C 305.47454,165.78411 305.47162,167.07026 305.47029,168.35641 C 305.47954,169.74422 305.44898,171.13155 305.44813,172.5193 C 305.41121,173.91267 305.72841,175.28012 305.90483,176.65578 C 306.05175,178.14598 306.08351,179.64824 306.07985,181.14523 C 306.06901,182.81124 306.07633,184.4771 306.09064,186.14311 C 306.05237,187.65338 305.43572,189.05511 305.13266,190.52039 C 304.85524,191.77187 305.15578,193.0312 305.26228,194.28389 C 305.41125,195.68717 305.50022,197.04179 305.06552,198.39642 C 304.6044,199.51484 304.38639,200.69103 304.26673,201.88783 C 304.16446,203.1811 304.18536,204.47931 304.15794,205.77522 C 304.1458,207.22714 304.16233,208.6791 304.1707,210.131 C 304.08074,211.4417 304.33597,212.71969 304.53506,214.00632 C 304.86829,215.08905 305.13982,216.18794 305.46732,217.27233 C 305.85638,218.52082 305.98746,219.82068 306.06594,221.11935 C 306.12472,222.41383 306.11975,223.71007 306.11921,225.00556 C 306.08269,226.47102 306.0961,227.93716 306.10196,229.40291 C 306.10785,230.72835 306.11016,232.05381 306.11146,233.37926 C 306.20563,234.70557 305.95863,236.00165 305.75437,237.30377 C 305.55998,238.56336 305.51149,239.83778 305.48118,241.10985 C 305.55289,242.43339 305.30925,243.7268 305.10679,245.02662 C 304.81629,246.30624 304.49624,247.57115 304.32877,248.87458 C 304.19265,250.14204 304.18453,251.41823 304.17581,252.69151 C 304.17083,254.11067 304.15394,255.52938 304.16016,256.94862 C 304.16899,258.31613 304.17513,259.68365 304.1784,261.05119 C 304.18092,262.34233 304.18095,263.63348 304.18105,264.92463 C 304.18106,266.21116 304.18098,267.49769 304.18093,268.78423 C 304.1809,270.07166 304.18089,271.35909 304.18089,272.64652 C 304.14539,273.77419 304.47114,274.8682 304.63121,275.97777 C 304.92361,277.20444 305.1829,278.43101 305.32842,279.68453 C 305.38192,280.96795 305.56124,282.23457 305.8757,283.47966 C 306.29412,284.76031 306.52705,286.0799 306.65805,287.41723 C 306.82639,288.75326 306.72203,290.06612 306.50521,291.38636 C 306.30283,292.66768 305.69919,293.7685 304.88723,294.75894 C 304.09863,295.78518 303.10864,296.62287 302.29789,297.6276 C 299.3967,300.82303 295.28279,302.82337 291.2182,304.20677 C 291.00788,304.26076 290.79756,304.31474 290.58724,304.36873 L 298.01326,298.62829 C 298.2111,298.55712 298.40894,298.48596 298.60678,298.4148 C 301.72345,297.08563 304.67107,294.95795 292.2233,302.29669 C 291.58892,302.67069 294.1648,301.36504 293.62691,301.28899 C 294.74935,300.09626 293.26084,301.71835 294.39629,300.33484 C 294.95698,299.65166 295.7533,299.19319 296.24195,298.43828 C 296.99981,297.52128 297.78013,296.71046 298.07751,295.5064 C 298.29011,294.25263 298.51672,293.02885 298.3346,291.74977 C 298.23704,290.46258 298.05599,289.18524 297.63974,287.957 C 297.26713,286.68242 297.05048,285.36233 297.01104,284.03452 C 296.8903,282.79002 296.66781,281.56602 296.30185,280.36812 C 296.14677,279.21236 295.79677,278.07815 295.81911,276.90706 C 295.81911,275.61964 295.8191,274.33222 295.81907,273.0448 C 295.81904,271.7583 295.81897,270.4718 295.81901,269.18529 C 295.81914,267.89333 295.81926,266.60137 295.82149,265.30942 C 295.82432,263.93686 295.82968,262.56431 295.83517,261.19175 C 295.83775,259.77691 295.81326,258.36273 295.81197,256.94798 C 295.81573,255.64472 295.81685,254.33957 295.92095,253.03958 C 296.05157,251.72355 296.2788,250.424 296.68583,249.16217 C 296.86507,247.89332 297.19607,246.64465 297.11101,245.35384 C 297.13165,244.04656 297.16269,242.73654 297.33268,241.43842 C 297.51319,240.1728 297.84783,238.92706 297.75111,237.63903 C 297.75252,236.30972 297.75497,234.98041 297.76269,233.65113 C 297.77086,232.18918 297.78871,230.72687 297.75727,229.2651 C 297.75936,227.98495 297.76648,226.70437 297.72572,225.42469 C 297.67022,224.19978 297.58373,222.96805 297.22403,221.78788 C 296.8696,220.66122 296.55924,219.52646 296.24058,218.38851 C 296.04937,217.05667 295.7204,215.73941 295.82619,214.38397 C 295.83115,212.92964 295.84135,211.47522 295.82511,210.02093 C 295.79706,208.70827 295.80509,207.39417 295.86395,206.08238 C 295.94721,204.82247 296.08221,203.55794 296.54821,202.37241 C 296.68948,202.02055 296.87527,201.68443 296.97972,201.31994 C 297.23034,200.44539 296.96909,199.50867 296.95522,198.62199 C 296.79928,197.29027 296.5057,195.94327 296.74311,194.60459 C 296.97832,193.15509 297.46982,191.80229 297.77741,190.37788 C 297.79485,188.71309 297.80956,187.0484 297.7805,185.38363 C 297.74958,183.9247 297.7574,182.46301 297.60329,181.00979 C 297.44925,179.59191 297.11986,178.18718 297.12705,176.759 C 297.12648,175.37798 297.09611,173.99738 297.10786,172.6163 C 297.10891,171.33131 297.11105,170.04631 297.11104,168.76131 C 297.10901,167.4591 297.10829,166.15625 297.04774,164.85514 C 296.96201,163.33982 296.79598,161.83307 296.58775,160.3297 C 296.45615,158.95579 296.44699,157.51151 296.95413,156.2068 C 297.52737,155.19484 298.50572,154.60256 299.38441,153.87382 C 303.07224,151.74675 306.46496,148.64301 310.75076,148.01181 C 312.19606,147.84235 313.65401,147.93677 315.10507,147.98368 C 316.52757,148.04838 317.95891,148.17647 319.38056,148.05251 C 319.74381,148.02091 320.38192,147.98291 320.73858,147.88297 C 320.90528,147.83626 321.36049,147.58114 321.21326,147.67221 C 302.59548,159.18951 312.73186,154.06595 314.09635,151.70991 C 314.23698,150.89531 314.65756,150.65053 313.90252,150.11765 C 312.73894,149.52705 311.49547,149.08317 310.19742,148.90857 C 308.92184,148.78602 307.62235,148.74819 306.40702,148.29326 C 305.36417,147.86583 304.34367,147.36465 303.65098,146.43987 C 302.90189,145.48719 302.45114,144.29153 302.19741,143.11397 C 302.11719,141.96627 301.96607,140.82919 301.65551,139.7181 C 301.37626,138.2922 301.38804,136.81949 301.07983,135.394 C 300.87698,134.05567 300.98946,132.69969 301.00792,131.34943 C 301.07122,129.8993 301.18768,128.4521 301.42406,127.01861 C 301.61563,125.70086 301.66012,124.39256 301.5797,123.06071 C 301.53843,121.83199 301.46651,120.60488 301.32969,119.38263 C 301.307,119.10187 301.24316,118.44906 301.26571,118.16909 C 301.32466,117.43719 301.74007,116.7549 301.59492,116.00252 C 301.56011,114.84444 301.51109,113.68212 301.28678,112.54214 C 301.03331,111.26395 300.88104,110.00541 300.98412,108.69653 C 300.9907,107.25578 300.98823,105.81525 300.96981,104.37468 C 300.97042,103.08711 300.97153,101.79954 300.97337,100.51198 C 300.97464,99.228916 300.97887,97.945705 300.95488,96.662806 C 300.92115,95.389628 300.8662,94.113961 300.65365,92.855728 C 300.4315,91.547262 300.21396,90.258467 300.32058,88.923275 C 300.32215,87.626232 300.32133,86.328467 300.3831,85.032567 C 300.4616,83.726502 300.59832,82.425239 300.87641,81.144583 C 301.10083,79.889485 300.95811,78.59958 301.0436,77.329696 C 301.07117,76.047495 301.06358,74.785389 300.81923,73.523872 C 300.66956,72.216638 300.3417,70.926458 300.32561,69.610973 C 300.32562,68.323447 300.32567,67.035921 300.32524,65.748396 C 300.32467,64.460548 300.32371,63.172699 300.32062,61.884854 C 300.31764,60.594296 300.31065,59.303659 300.32536,58.013148 C 300.35023,56.724943 300.38284,55.428847 300.64277,54.162147 C 300.92364,52.980928 301.45626,51.890491 301.62652,50.684409 C 301.61103,49.287921 301.57591,47.889594 301.39363,46.503002 C 301.20487,45.182478 300.8789,43.877135 300.97247,42.533437 C 300.95804,41.054493 300.93025,39.573708 300.778,38.10127 C 300.60508,36.59247 300.26951,35.098226 300.31096,33.572751 C 300.27696,32.299101 300.22148,31.022963 300.00769,29.764431 C 299.78403,28.453351 299.564,27.162006 299.67731,25.823896 C 299.69029,24.536936 299.70392,23.245421 299.87996,21.968166 C 300.06703,20.83647 300.44021,19.772723 300.7172,18.671954 C 300.87688,17.373043 300.36473,16.067827 300.66539,14.769824 C 300.89575,13.38534 301.11651,12.027879 300.89578,10.619575 C 300.76308,9.4611842 300.56247,8.3227542 299.80507,7.3903215 C 299.13653,6.5104179 298.17528,5.9082906 297.28957,5.2679503 C 296.00354,4.4991782 294.67929,3.7659492 293.17668,3.5297903 C 290.95574,3.1969956 288.75288,3.1806649 286.51472,3.4052941 L 294.11653,-2.1177405 z" />
  </g>
</svg>
